REM MD5 f51f081e36b19b7492172cb8545a24d9
FILE "Gionbana 2 - Kanazawa Bunko-hen (Japan).bin" BINARY
  TRACK 01 MODE2/2352
    INDEX 01 00:00:00
  TRACK 02 AUDIO
    INDEX 00 24:45:19
    INDEX 01 24:47:19
  TRACK 03 AUDIO
    INDEX 00 31:47:31
    INDEX 01 31:49:31
  TRACK 04 AUDIO
    INDEX 00 36:29:48
    INDEX 01 36:31:48
REM LEADOUT 39:44:42
